<?xml version="1.0" encoding="UTF-8" standalone="no"?>
<!-- Generator: Adobe Illustrator 19.0.0, SVG Export Plug-In . SVG Version: 6.00 Build 0)  -->

<svg
   xmlns:dc="http://purl.org/dc/elements/1.1/"
   xmlns:cc="http://creativecommons.org/ns#"
   xmlns:rdf="http://www.w3.org/1999/02/22-rdf-syntax-ns#"
   xmlns:svg="http://www.w3.org/2000/svg"
   xmlns="http://www.w3.org/2000/svg"
   xmlns:sodipodi="http://sodipodi.sourceforge.net/DTD/sodipodi-0.dtd"
   xmlns:inkscape="http://www.inkscape.org/namespaces/inkscape"
   version="1.1"
   id="Layer_1"
   x="0px"
   y="0px"
   viewBox="0 0 512.001 512.001"
   style="enable-background:new 0 0 512.001 512.001;"
   xml:space="preserve"
   sodipodi:docname="dice.svg"
   inkscape:version="0.92.1 r15371"><metadata
     id="metadata67"><rdf:RDF><cc:Work
         rdf:about=""><dc:format>image/svg+xml</dc:format><dc:type
           rdf:resource="http://purl.org/dc/dcmitype/StillImage" /></cc:Work></rdf:RDF></metadata><defs
     id="defs65" /><sodipodi:namedview
     pagecolor="#ffffff"
     bordercolor="#666666"
     borderopacity="1"
     objecttolerance="10"
     gridtolerance="10"
     guidetolerance="10"
     inkscape:pageopacity="0"
     inkscape:pageshadow="2"
     inkscape:window-width="1366"
     inkscape:window-height="708"
     id="namedview63"
     showgrid="false"
     inkscape:zoom="0.46093662"
     inkscape:cx="-96.542557"
     inkscape:cy="256.00049"
     inkscape:window-x="-8"
     inkscape:window-y="-8"
     inkscape:window-maximized="1"
     inkscape:current-layer="Layer_1" /><path
     style="fill:#5b6dc9;fill-opacity:1"
     d="M305.858,10.189L143.194,172.852c-9.946,9.946-9.945,26.072,0,36.018l162.665,162.664  c9.946,9.946,26.072,9.946,36.018,0L504.542,208.87c9.946-9.946,9.946-26.071,0-36.018L341.876,10.189  C331.93,0.243,315.803,0.243,305.858,10.189z"
     id="path2" /><g
     id="g12"><circle
       style="fill:#FFFFFF;"
       cx="209.989"
       cy="190.866"
       r="22.424"
       id="circle4" /><circle
       style="fill:#FFFFFF;"
       cx="323.869"
       cy="76.986"
       r="22.424"
       id="circle6" /><circle
       style="fill:#FFFFFF;"
       cx="323.869"
       cy="304.746"
       r="22.424"
       id="circle8" /><circle
       style="fill:#FFFFFF;"
       cx="437.748"
       cy="190.866"
       r="22.424"
       id="circle10" /></g><path
     style="opacity:0.1;enable-background:new    ;"
     d="M349.52,327.873L186.855,165.21c-9.946-9.946-9.946-26.072,0-36.018  l-43.661,43.661c-9.946,9.946-9.945,26.072,0,36.018l162.665,162.664c9.946,9.946,26.072,9.946,36.018,0l43.661-43.661  C375.591,337.819,359.466,337.82,349.52,327.873z"
     id="path14" /><path
     style="fill:#515262;"
     d="M255.51,228.293H25.469C11.403,228.293,0,239.696,0,253.761v230.042  c0,14.067,11.403,25.469,25.469,25.469H255.51c14.065,0,25.469-11.402,25.469-25.469V253.761  C280.979,239.696,269.576,228.293,255.51,228.293z"
     id="path16" /><g
     id="g28"><circle
       style="fill:#FFFFFF;"
       cx="140.491"
       cy="368.786"
       r="22.424"
       id="circle18" /><circle
       style="fill:#FFFFFF;"
       cx="59.964"
       cy="288.253"
       r="22.424"
       id="circle20" /><circle
       style="fill:#FFFFFF;"
       cx="221.014"
       cy="288.253"
       r="22.424"
       id="circle22" /><circle
       style="fill:#FFFFFF;"
       cx="59.964"
       cy="449.308"
       r="22.424"
       id="circle24" /><circle
       style="fill:#FFFFFF;"
       cx="221.014"
       cy="449.308"
       r="22.424"
       id="circle26" /></g><path
     style="opacity:0.1;enable-background:new    ;"
     d="M54.577,483.803V253.761c0-14.066,11.403-25.469,25.469-25.469H25.469  C11.403,228.293,0,239.696,0,253.761v230.042c0,14.067,11.403,25.469,25.469,25.469h54.577  C65.98,509.272,54.577,497.868,54.577,483.803z"
     id="path30" /><g
     id="g32" /><g
     id="g34" /><g
     id="g36" /><g
     id="g38" /><g
     id="g40" /><g
     id="g42" /><g
     id="g44" /><g
     id="g46" /><g
     id="g48" /><g
     id="g50" /><g
     id="g52" /><g
     id="g54" /><g
     id="g56" /><g
     id="g58" /><g
     id="g60" /></svg>